<svg width="141" height="17" viewBox="0 0 141 17" fill="none" xmlns="http://www.w3.org/2000/svg">
<path d="M0.71 13C0.59 13 0.482 12.958 0.386 12.874C0.302 12.778 0.26 12.67 0.26 12.55V0.85C0.26 0.717999 0.302 0.609999 0.386 0.526C0.482 0.441999 0.59 0.399999 0.71 0.399999H2.978C3.11 0.399999 3.218 0.441999 3.302 0.526C3.386 0.609999 3.428 0.717999 3.428 0.85V4.846L6.758 0.741999C6.902 0.513999 7.136 0.399999 7.46 0.399999H10.052C10.16 0.399999 10.25 0.441999 10.322 0.526C10.394 0.597999 10.43 0.681999 10.43 0.778C10.43 0.861999 10.412 0.933999 10.376 0.993999L6.056 6.43L10.7 12.406C10.748 12.454 10.772 12.526 10.772 12.622C10.772 12.718 10.736 12.808 10.664 12.892C10.592 12.964 10.502 13 10.394 13H7.712C7.424 13 7.184 12.88 6.992 12.64L3.428 8.194V12.55C3.428 12.682 3.386 12.79 3.302 12.874C3.218 12.958 3.11 13 2.978 13H0.71ZM14.6825 13.18C14.0465 13.18 13.4645 13.06 12.9365 12.82C12.4205 12.568 12.0125 12.232 11.7125 11.812C11.4245 11.38 11.2805 10.906 11.2805 10.39C11.2805 9.562 11.6165 8.896 12.2885 8.392C12.9725 7.888 13.9085 7.54 15.0965 7.348L17.3465 7.006V6.754C17.3465 6.298 17.2505 5.962 17.0585 5.746C16.8665 5.53 16.5425 5.422 16.0865 5.422C15.8105 5.422 15.5825 5.47 15.4025 5.566C15.2225 5.662 15.0365 5.794 14.8445 5.962C14.6765 6.106 14.5505 6.202 14.4665 6.25C14.4305 6.346 14.3645 6.394 14.2685 6.394H12.3065C12.1865 6.394 12.0845 6.358 12.0005 6.286C11.9285 6.202 11.8985 6.106 11.9105 5.998C11.9225 5.674 12.0785 5.314 12.3785 4.918C12.6905 4.522 13.1585 4.18 13.7825 3.892C14.4185 3.604 15.1985 3.46 16.1225 3.46C17.5985 3.46 18.6905 3.79 19.3985 4.45C20.1065 5.098 20.4605 5.974 20.4605 7.078V12.55C20.4605 12.67 20.4185 12.778 20.3345 12.874C20.2505 12.958 20.1425 13 20.0105 13H17.9225C17.8025 13 17.6945 12.958 17.5985 12.874C17.5145 12.778 17.4725 12.67 17.4725 12.55V11.92C17.2085 12.292 16.8365 12.598 16.3565 12.838C15.8885 13.066 15.3305 13.18 14.6825 13.18ZM15.5285 11.128C16.0805 11.128 16.5245 10.948 16.8605 10.588C17.2085 10.228 17.3825 9.7 17.3825 9.004V8.752L15.8525 9.022C14.7725 9.214 14.2325 9.592 14.2325 10.156C14.2325 10.456 14.3585 10.696 14.6105 10.876C14.8625 11.044 15.1685 11.128 15.5285 11.128ZM22.9417 13C22.8097 13 22.7017 12.958 22.6177 12.874C22.5337 12.79 22.4917 12.682 22.4917 12.55V4.09C22.4917 3.958 22.5337 3.85 22.6177 3.766C22.7017 3.682 22.8097 3.64 22.9417 3.64H24.9037C25.0357 3.64 25.1437 3.682 25.2277 3.766C25.3117 3.85 25.3537 3.958 25.3537 4.09V4.702C25.6297 4.342 25.9957 4.048 26.4517 3.82C26.9197 3.58 27.4417 3.46 28.0177 3.46C29.3377 3.46 30.2497 3.976 30.7537 5.008C31.0417 4.552 31.4437 4.18 31.9597 3.892C32.4757 3.604 33.0277 3.46 33.6157 3.46C34.5997 3.46 35.3977 3.796 36.0097 4.468C36.6337 5.128 36.9457 6.118 36.9457 7.438V12.55C36.9457 12.67 36.9037 12.778 36.8197 12.874C36.7357 12.958 36.6277 13 36.4957 13H34.4077C34.2757 13 34.1617 12.958 34.0657 12.874C33.9817 12.79 33.9397 12.682 33.9397 12.55V7.564C33.9397 6.964 33.8137 6.532 33.5617 6.268C33.3217 6.004 32.9917 5.872 32.5717 5.872C32.1877 5.872 31.8697 6.01 31.6177 6.286C31.3657 6.55 31.2397 6.976 31.2397 7.564V12.55C31.2397 12.67 31.1977 12.778 31.1137 12.874C31.0297 12.958 30.9217 13 30.7897 13H28.7017C28.5697 13 28.4617 12.958 28.3777 12.874C28.2937 12.79 28.2517 12.682 28.2517 12.55V7.564C28.2517 6.976 28.1197 6.55 27.8557 6.286C27.6037 6.01 27.2797 5.872 26.8837 5.872C26.4997 5.872 26.1757 6.01 25.9117 6.286C25.6597 6.55 25.5337 6.97 25.5337 7.546V12.55C25.5337 12.67 25.4917 12.778 25.4077 12.874C25.3237 12.958 25.2157 13 25.0837 13H22.9417ZM39.43 16.42C39.31 16.42 39.202 16.378 39.106 16.294C39.022 16.21 38.98 16.102 38.98 15.97V4.09C38.98 3.958 39.022 3.85 39.106 3.766C39.202 3.682 39.31 3.64 39.43 3.64H41.464C41.596 3.64 41.704 3.682 41.788 3.766C41.872 3.85 41.914 3.958 41.914 4.09V4.738C42.562 3.886 43.492 3.46 44.704 3.46C45.88 3.46 46.798 3.826 47.458 4.558C48.118 5.29 48.478 6.322 48.538 7.654C48.55 7.81 48.556 8.032 48.556 8.32C48.556 8.608 48.55 8.83 48.538 8.986C48.49 10.282 48.13 11.308 47.458 12.064C46.786 12.808 45.868 13.18 44.704 13.18C43.528 13.18 42.652 12.778 42.076 11.974V15.97C42.076 16.102 42.034 16.21 41.95 16.294C41.866 16.378 41.758 16.42 41.626 16.42H39.43ZM43.732 10.768C44.296 10.768 44.698 10.6 44.938 10.264C45.19 9.928 45.334 9.466 45.37 8.878C45.394 8.638 45.406 8.452 45.406 8.32C45.406 8.188 45.394 8.002 45.37 7.762C45.334 7.174 45.19 6.712 44.938 6.376C44.698 6.04 44.296 5.872 43.732 5.872C43.18 5.872 42.772 6.046 42.508 6.394C42.256 6.73 42.112 7.168 42.076 7.708L42.058 8.374L42.076 9.058C42.1 9.55 42.25 9.958 42.526 10.282C42.802 10.606 43.204 10.768 43.732 10.768ZM53.7734 13.18C52.7174 13.18 51.8654 12.826 51.2174 12.118C50.5694 11.398 50.2454 10.396 50.2454 9.112V4.09C50.2454 3.958 50.2874 3.85 50.3714 3.766C50.4554 3.682 50.5634 3.64 50.6954 3.64H52.9454C53.0774 3.64 53.1854 3.682 53.2694 3.766C53.3654 3.85 53.4134 3.958 53.4134 4.09V9.004C53.4134 10.18 53.9354 10.768 54.9794 10.768C55.4834 10.768 55.8794 10.612 56.1674 10.3C56.4554 9.988 56.5994 9.556 56.5994 9.004V4.09C56.5994 3.958 56.6414 3.85 56.7254 3.766C56.8214 3.682 56.9294 3.64 57.0494 3.64H59.2994C59.4314 3.64 59.5394 3.682 59.6234 3.766C59.7074 3.85 59.7494 3.958 59.7494 4.09V12.55C59.7494 12.67 59.7074 12.778 59.6234 12.874C59.5394 12.958 59.4314 13 59.2994 13H57.2114C57.0914 13 56.9834 12.958 56.8874 12.874C56.8034 12.778 56.7614 12.67 56.7614 12.55V11.866C56.1374 12.742 55.1414 13.18 53.7734 13.18ZM62.3167 13C62.1847 13 62.0767 12.958 61.9927 12.874C61.9087 12.79 61.8667 12.682 61.8667 12.55V4.09C61.8667 3.958 61.9087 3.85 61.9927 3.766C62.0767 3.682 62.1847 3.64 62.3167 3.64H64.3867C64.5187 3.64 64.6267 3.682 64.7107 3.766C64.8067 3.85 64.8547 3.958 64.8547 4.09V4.774C65.1787 4.378 65.5927 4.06 66.0967 3.82C66.6127 3.58 67.1947 3.46 67.8427 3.46C68.8987 3.46 69.7567 3.82 70.4167 4.54C71.0767 5.248 71.4067 6.244 71.4067 7.528V12.55C71.4067 12.67 71.3647 12.778 71.2807 12.874C71.1967 12.958 71.0887 13 70.9567 13H68.6887C68.5687 13 68.4607 12.958 68.3647 12.874C68.2807 12.778 68.2387 12.67 68.2387 12.55V7.636C68.2387 7.072 68.1007 6.64 67.8247 6.34C67.5487 6.028 67.1527 5.872 66.6367 5.872C66.1327 5.872 65.7367 6.028 65.4487 6.34C65.1607 6.64 65.0167 7.072 65.0167 7.636V12.55C65.0167 12.67 64.9747 12.778 64.8907 12.874C64.8067 12.958 64.6987 13 64.5667 13H62.3167ZM78.0231 16.96C76.8831 16.96 75.9591 16.774 75.2511 16.402C74.5431 16.03 74.0331 15.604 73.7211 15.124C73.4211 14.644 73.2711 14.242 73.2711 13.918C73.2711 13.81 73.3191 13.714 73.4151 13.63C73.5111 13.546 73.6191 13.504 73.7391 13.504H76.0251C76.1451 13.504 76.2351 13.528 76.2951 13.576C76.3671 13.636 76.4331 13.732 76.4931 13.864C76.6131 14.14 76.7751 14.356 76.9791 14.512C77.1831 14.68 77.5011 14.764 77.9331 14.764C78.4851 14.764 78.8931 14.626 79.1571 14.35C79.4211 14.086 79.5531 13.636 79.5531 13V11.794C78.9411 12.466 78.0651 12.802 76.9251 12.802C75.7131 12.802 74.7831 12.448 74.1351 11.74C73.4991 11.02 73.1511 9.982 73.0911 8.626L73.0731 8.14C73.0731 6.688 73.3971 5.548 74.0451 4.72C74.6931 3.88 75.6531 3.46 76.9251 3.46C77.5371 3.46 78.0771 3.58 78.5451 3.82C79.0131 4.048 79.4091 4.36 79.7331 4.756V4.09C79.7331 3.958 79.7751 3.85 79.8591 3.766C79.9551 3.682 80.0631 3.64 80.1831 3.64H82.2531C82.3851 3.64 82.4931 3.688 82.5771 3.784C82.6731 3.868 82.7211 3.97 82.7211 4.09V12.748C82.7211 14.116 82.3131 15.16 81.4971 15.88C80.6811 16.6 79.5231 16.96 78.0231 16.96ZM77.8971 10.462C78.4371 10.462 78.8391 10.3 79.1031 9.976C79.3671 9.64 79.5171 9.22 79.5531 8.716C79.5651 8.632 79.5711 8.446 79.5711 8.158C79.5711 7.882 79.5651 7.702 79.5531 7.618C79.5291 7.114 79.3791 6.7 79.1031 6.376C78.8391 6.04 78.4371 5.872 77.8971 5.872C77.3331 5.872 76.9251 6.04 76.6731 6.376C76.4211 6.712 76.2831 7.174 76.2591 7.762L76.2411 8.158C76.2411 8.866 76.3611 9.43 76.6011 9.85C76.8411 10.258 77.2731 10.462 77.8971 10.462Z" fill="black"/>
<path d="M89.3213 13C89.2013 13 89.0933 12.958 88.9973 12.874C88.9133 12.778 88.8713 12.67 88.8713 12.55V0.85C88.8713 0.717999 88.9133 0.609999 88.9973 0.526C89.0933 0.441999 89.2013 0.399999 89.3213 0.399999H94.2173C95.7893 0.399999 97.0133 0.759999 97.8893 1.48C98.7773 2.188 99.2213 3.196 99.2213 4.504C99.2213 5.344 99.0233 6.058 98.6273 6.646C98.2313 7.234 97.6853 7.684 96.9893 7.996L99.4553 12.424C99.4913 12.496 99.5093 12.562 99.5093 12.622C99.5093 12.718 99.4673 12.808 99.3833 12.892C99.3113 12.964 99.2273 13 99.1313 13H96.7373C96.3893 13 96.1433 12.838 95.9993 12.514L93.9473 8.554H92.1113V12.55C92.1113 12.682 92.0633 12.79 91.9673 12.874C91.8833 12.958 91.7753 13 91.6433 13H89.3213ZM94.1813 5.998C94.7333 5.998 95.1533 5.866 95.4413 5.602C95.7293 5.326 95.8733 4.948 95.8733 4.468C95.8733 3.988 95.7293 3.61 95.4413 3.334C95.1653 3.046 94.7453 2.902 94.1813 2.902H92.1113V5.998H94.1813ZM105.424 13.18C103.936 13.18 102.79 12.826 101.986 12.118C101.182 11.41 100.744 10.414 100.672 9.13C100.66 8.974 100.654 8.704 100.654 8.32C100.654 7.936 100.66 7.666 100.672 7.51C100.744 6.238 101.194 5.248 102.022 4.54C102.85 3.82 103.984 3.46 105.424 3.46C106.876 3.46 108.016 3.82 108.844 4.54C109.672 5.248 110.122 6.238 110.194 7.51C110.206 7.666 110.212 7.936 110.212 8.32C110.212 8.704 110.206 8.974 110.194 9.13C110.122 10.414 109.684 11.41 108.88 12.118C108.076 12.826 106.924 13.18 105.424 13.18ZM105.424 10.984C105.952 10.984 106.342 10.828 106.594 10.516C106.846 10.192 106.99 9.7 107.026 9.04C107.038 8.92 107.044 8.68 107.044 8.32C107.044 7.96 107.038 7.72 107.026 7.6C106.99 6.952 106.84 6.466 106.576 6.142C106.324 5.818 105.94 5.656 105.424 5.656C104.428 5.656 103.9 6.304 103.84 7.6L103.822 8.32L103.84 9.04C103.864 9.7 104.002 10.192 104.254 10.516C104.518 10.828 104.908 10.984 105.424 10.984ZM116.752 13C114.268 13 113.026 11.818 113.026 9.454V5.998H111.622C111.49 5.998 111.376 5.956 111.28 5.872C111.196 5.788 111.154 5.68 111.154 5.548V4.09C111.154 3.958 111.196 3.85 111.28 3.766C111.376 3.682 111.49 3.64 111.622 3.64H113.026V0.669999C113.026 0.537999 113.068 0.429999 113.152 0.346C113.248 0.261999 113.356 0.219999 113.476 0.219999H115.564C115.696 0.219999 115.804 0.261999 115.888 0.346C115.972 0.429999 116.014 0.537999 116.014 0.669999V3.64H118.264C118.396 3.64 118.504 3.682 118.588 3.766C118.684 3.85 118.732 3.958 118.732 4.09V5.548C118.732 5.68 118.684 5.788 118.588 5.872C118.504 5.956 118.396 5.998 118.264 5.998H116.014V9.202C116.014 10.09 116.356 10.534 117.04 10.534H118.426C118.558 10.534 118.666 10.576 118.75 10.66C118.834 10.744 118.876 10.852 118.876 10.984V12.55C118.876 12.67 118.834 12.778 118.75 12.874C118.666 12.958 118.558 13 118.426 13H116.752ZM123.175 13.18C122.539 13.18 121.957 13.06 121.429 12.82C120.913 12.568 120.505 12.232 120.205 11.812C119.917 11.38 119.773 10.906 119.773 10.39C119.773 9.562 120.109 8.896 120.781 8.392C121.465 7.888 122.401 7.54 123.589 7.348L125.839 7.006V6.754C125.839 6.298 125.743 5.962 125.551 5.746C125.359 5.53 125.035 5.422 124.579 5.422C124.303 5.422 124.075 5.47 123.895 5.566C123.715 5.662 123.529 5.794 123.337 5.962C123.169 6.106 123.043 6.202 122.959 6.25C122.923 6.346 122.857 6.394 122.761 6.394H120.799C120.679 6.394 120.577 6.358 120.493 6.286C120.421 6.202 120.391 6.106 120.403 5.998C120.415 5.674 120.571 5.314 120.871 4.918C121.183 4.522 121.651 4.18 122.275 3.892C122.911 3.604 123.691 3.46 124.615 3.46C126.091 3.46 127.183 3.79 127.891 4.45C128.599 5.098 128.953 5.974 128.953 7.078V12.55C128.953 12.67 128.911 12.778 128.827 12.874C128.743 12.958 128.635 13 128.503 13H126.415C126.295 13 126.187 12.958 126.091 12.874C126.007 12.778 125.965 12.67 125.965 12.55V11.92C125.701 12.292 125.329 12.598 124.849 12.838C124.381 13.066 123.823 13.18 123.175 13.18ZM124.021 11.128C124.573 11.128 125.017 10.948 125.353 10.588C125.701 10.228 125.875 9.7 125.875 9.004V8.752L124.345 9.022C123.265 9.214 122.725 9.592 122.725 10.156C122.725 10.456 122.851 10.696 123.103 10.876C123.355 11.044 123.661 11.128 124.021 11.128ZM131.434 13C131.302 13 131.194 12.958 131.11 12.874C131.026 12.79 130.984 12.682 130.984 12.55V4.09C130.984 3.958 131.026 3.85 131.11 3.766C131.194 3.682 131.302 3.64 131.434 3.64H133.504C133.636 3.64 133.744 3.682 133.828 3.766C133.924 3.85 133.972 3.958 133.972 4.09V4.774C134.296 4.378 134.71 4.06 135.214 3.82C135.73 3.58 136.312 3.46 136.96 3.46C138.016 3.46 138.874 3.82 139.534 4.54C140.194 5.248 140.524 6.244 140.524 7.528V12.55C140.524 12.67 140.482 12.778 140.398 12.874C140.314 12.958 140.206 13 140.074 13H137.806C137.686 13 137.578 12.958 137.482 12.874C137.398 12.778 137.356 12.67 137.356 12.55V7.636C137.356 7.072 137.218 6.64 136.942 6.34C136.666 6.028 136.27 5.872 135.754 5.872C135.25 5.872 134.854 6.028 134.566 6.34C134.278 6.64 134.134 7.072 134.134 7.636V12.55C134.134 12.67 134.092 12.778 134.008 12.874C133.924 12.958 133.816 13 133.684 13H131.434Z" fill="#EC5863"/>
</svg>
